<svg width="809" height="541" viewBox="0 0 809 541" fill="none" xmlns="http://www.w3.org/2000/svg">
<circle cx="562.362" cy="221.638" r="221.638" fill="black"/>
<circle cx="562.362" cy="221.638" r="184.699" fill="white"/>
<line x1="719.725" y1="160.688" x2="527.638" y2="160.688" stroke="black" stroke-width="33.2458"/>
<line x1="621.096" y1="250.451" x2="621.096" y2="176.572" stroke="black" stroke-width="33.2458"/>
<line x1="566.425" y1="250.451" x2="566.425" y2="176.572" stroke="black" stroke-width="33.2458"/>
<line x1="673.92" y1="295.887" x2="492.176" y2="295.887" stroke="black" stroke-width="33.2458"/>
<line x1="658.306" y1="308.326" x2="704.198" y2="137.057" stroke="black" stroke-width="33.2458"/>
<line x1="715.309" y1="180.012" x2="724.554" y2="144.248" stroke="white" stroke-width="10.3431"/>
<line x1="488.32" y1="284.63" x2="497.488" y2="320.414" stroke="white" stroke-width="10.3431"/>
<line x1="513.148" y1="195.375" x2="497.851" y2="138.285" stroke="white" stroke-width="29.5518"/>
<line x1="340.723" y1="144.065" x2="429.379" y2="144.065" stroke="white" stroke-width="88.6553"/>
<line x1="515.988" y1="308.279" x2="467.611" y2="127.733" stroke="black" stroke-width="33.2458"/>
<line x1="675.397" y1="138.155" x2="721.941" y2="138.155" stroke="white" stroke-width="11.8207"/>
<line x1="306" y1="140.002" x2="483.237" y2="140.002" stroke="black" stroke-width="33.2458"/>
<circle cx="539.828" cy="357.946" r="27.7048" fill="black"/>
<circle cx="623.312" cy="357.946" r="27.7048" fill="black"/>
<path d="M114.44 322.2L77.96 363.72C82.84 369.56 88.44 376.08 94.76 383.28C101.16 390.48 105.28 394.92 107.12 396.6C109.04 398.28 110.52 399.56 111.56 400.44C112.68 401.24 114.36 402.16 116.6 403.2C118.84 404.16 121.24 404.8 123.8 405.12L123.68 408.96C118.88 408.88 114.92 408.16 111.8 406.8C108.68 405.36 105.96 403.52 103.64 401.28C101.32 398.96 96.24 393.36 88.4 384.48C80.64 375.52 74.8 368.68 70.88 363.96L107.72 322.2H114.44ZM68.6 322.2V408H62.84V322.2H68.6ZM139.654 381L128.494 408H122.854L155.494 329.64H158.734L191.614 408H185.494L174.214 381H139.654ZM156.814 338.52C155.614 342.12 154.534 345.12 153.574 347.52L141.574 376.32H172.294L160.414 347.64C158.574 343.16 157.374 340.12 156.814 338.52ZM207.416 399.12V330.12H212.816V395.64C212.816 402.12 211.816 407.84 209.816 412.8C207.816 417.76 205.496 421.6 202.856 424.32C200.216 427.04 196.816 429.88 192.656 432.84L190.136 429.24C201.656 420.84 207.416 410.8 207.416 399.12ZM241.634 408V330.12H247.154V402.96H282.914V408H241.634ZM328.926 409.2C317.806 409.2 308.486 405.32 300.966 397.56C293.446 389.8 289.686 380.32 289.686 369.12C289.686 357.84 293.446 348.32 300.966 340.56C308.486 332.8 317.806 328.92 328.926 328.92C340.046 328.92 349.366 332.8 356.886 340.56C364.406 348.32 368.166 357.84 368.166 369.12C368.166 380.32 364.406 389.8 356.886 397.56C349.366 405.32 340.046 409.2 328.926 409.2ZM328.926 333.84C319.326 333.84 311.326 337.24 304.926 344.04C298.606 350.84 295.446 359.2 295.446 369.12C295.446 378.96 298.606 387.28 304.926 394.08C311.326 400.8 319.326 404.16 328.926 404.16C338.606 404.16 346.606 400.8 352.926 394.08C359.246 387.28 362.406 378.96 362.406 369.12C362.406 359.2 359.246 350.84 352.926 344.04C346.606 337.24 338.606 333.84 328.926 333.84ZM103.4 540.44C90.92 540.44 80.2 536.2 71.24 527.72C62.28 519.16 57.8 508.64 57.8 496.16C57.8 483.6 61.72 473.08 69.56 464.6C77.4 456.04 87.44 451.76 99.68 451.76C109.28 451.76 119 453.36 128.84 456.56L127.28 461.36C117.68 458.48 108.48 457.04 99.68 457.04C89.2 457.04 80.64 460.8 74 468.32C67.36 475.84 64.04 485.04 64.04 495.92C64.04 506.8 67.88 516.08 75.56 523.76C83.32 531.36 92.6 535.16 103.4 535.16C112.84 535.16 121 533.72 127.88 530.84L129.68 534.92C126.64 536.68 122.64 538.04 117.68 539C112.8 539.96 108.04 540.44 103.4 540.44ZM183.848 540.2C172.728 540.2 163.408 536.32 155.888 528.56C148.368 520.8 144.608 511.32 144.608 500.12C144.608 488.84 148.368 479.32 155.888 471.56C163.408 463.8 172.728 459.92 183.848 459.92C194.968 459.92 204.288 463.8 211.808 471.56C219.328 479.32 223.088 488.84 223.088 500.12C223.088 511.32 219.328 520.8 211.808 528.56C204.288 536.32 194.968 540.2 183.848 540.2ZM183.848 464.84C174.248 464.84 166.248 468.24 159.848 475.04C153.528 481.84 150.368 490.2 150.368 500.12C150.368 509.96 153.528 518.28 159.848 525.08C166.248 531.8 174.248 535.16 183.848 535.16C193.528 535.16 201.528 531.8 207.848 525.08C214.168 518.28 217.328 509.96 217.328 500.12C217.328 490.2 214.168 481.84 207.848 475.04C201.528 468.24 193.528 464.84 183.848 464.84ZM283.262 534.92H280.022L257.342 479.84C256.382 477.68 255.422 475.16 254.462 472.28C254.462 472.36 254.382 472.8 254.222 473.6C254.142 474.4 254.022 475.48 253.862 476.84C253.702 478.12 253.542 479.2 253.382 480.08L244.382 539H238.982L251.702 460.64H254.942L279.182 518.12C281.102 522.92 282.062 525.44 282.062 525.68C282.622 524 283.702 521.52 285.302 518.24L312.302 460.64H315.542L327.422 539H321.662L313.142 479.84C312.582 475.92 312.302 473.32 312.302 472.04L308.822 479.96L283.262 534.92ZM384.161 534.92H380.921L358.241 479.84C357.281 477.68 356.321 475.16 355.361 472.28C355.361 472.36 355.281 472.8 355.121 473.6C355.041 474.4 354.921 475.48 354.761 476.84C354.601 478.12 354.441 479.2 354.281 480.08L345.281 539H339.881L352.601 460.64H355.841L380.081 518.12C382.001 522.92 382.961 525.44 382.961 525.68C383.521 524 384.601 521.52 386.201 518.24L413.201 460.64H416.441L428.321 539H422.561L414.041 479.84C413.481 475.92 413.201 473.32 413.201 472.04L409.721 479.96L384.161 534.92ZM448.939 539V461.12H485.299V465.92H454.459V494.24H482.299V498.92H454.459V533.96H486.499V539H448.939ZM508.588 539V461.48C515.468 460.92 521.308 460.64 526.108 460.64C533.468 460.64 539.548 462.56 544.348 466.4C549.148 470.16 551.548 475.56 551.548 482.6C551.548 487.32 550.188 491.68 547.468 495.68C544.748 499.68 541.668 502.92 538.228 505.4C547.748 518.04 553.628 525.6 555.867 528.08C560.428 532.8 565.388 535.48 570.748 536.12L570.628 539.84C566.148 539.76 562.508 539.12 559.708 537.92C556.908 536.64 554.108 534.52 551.308 531.56C548.588 528.6 542.548 520.64 533.188 507.68C526.708 507.68 520.348 507.48 514.108 507.08V539H508.588ZM530.188 503.12C533.308 503.12 536.668 501.04 540.268 496.88C543.868 492.72 545.668 487.88 545.668 482.36C545.668 476.84 543.788 472.64 540.028 469.76C536.268 466.88 531.388 465.44 525.388 465.44C522.188 465.44 518.428 465.6 514.108 465.92V502.52C519.868 502.92 525.228 503.12 530.188 503.12ZM639.266 535.16C633.266 538.52 624.906 540.2 614.186 540.2C603.546 540.2 594.146 536.36 585.986 528.68C577.906 521 573.866 511.48 573.866 500.12C573.866 488.68 577.386 479.12 584.426 471.44C591.546 463.76 600.706 459.92 611.906 459.92C620.946 459.92 629.786 461.32 638.426 464.12L636.986 468.68C628.666 466.12 620.066 464.84 611.186 464.84C602.306 464.84 594.826 468.24 588.746 475.04C582.746 481.76 579.746 490.04 579.746 499.88C579.746 509.64 583.226 517.96 590.186 524.84C597.226 531.72 605.346 535.16 614.546 535.16C623.746 535.16 631.386 533.88 637.466 531.32L639.266 535.16ZM658.939 539V461.12H695.299V465.92H664.459V494.24H692.299V498.92H664.459V533.96H696.499V539H658.939Z" fill="black"/>
</svg>
